<svg xmlns="http://www.w3.org/2000/svg" width="1360" height="620" viewBox="0 0 1360 620"><defs><marker id="arrow" markerWidth="8" markerHeight="8" refX="7" refY="4" orient="auto"><path d="M0,0 L8,4 L0,8" fill="#667085"/></marker></defs><rect width="1360" height="620" fill="#f8fafc"/><g font-family="Arial,sans-serif"><text x="20" y="30" font-size="22">Energy — synthetic planned model</text><path d="M310,142 L350,142" fill="none" stroke="#667085" stroke-width="2" stroke-dasharray="6 3" marker-end="url(#arrow)"/><path d="M310,372 L350,372" fill="none" stroke="#667085" stroke-width="2" stroke-dasharray="6 3" marker-end="url(#arrow)"/><path d="M640,142 L680,142" fill="none" stroke="#667085" stroke-width="2" stroke-dasharray="6 3" marker-end="url(#arrow)"/><path d="M640,372 L680,372" fill="none" stroke="#667085" stroke-width="2" stroke-dasharray="6 3" marker-end="url(#arrow)"/><path d="M970,142 L1010,257" fill="none" stroke="#667085" stroke-width="2" stroke-dasharray="6 3" marker-end="url(#arrow)"/><path d="M970,372 L1010,257" fill="none" stroke="#667085" stroke-width="2" stroke-dasharray="6 3" marker-end="url(#arrow)"/><rect x="20" y="70" width="290" height="137" rx="8" fill="#fff" stroke="#334155"/><text x="30" y="90" font-size="15" font-weight="bold">raw: readings</text><text x="30" y="108" font-size="9">synthetic-review.raw_energy.readings</text><text x="30" y="130" font-size="12">reading_id [candidate PK]</text><text x="30" y="148" font-size="12">meter_id</text><text x="30" y="166" font-size="12">recorded_on</text><text x="30" y="184" font-size="12">kwh</text><rect x="20" y="300" width="290" height="101" rx="8" fill="#fff" stroke="#334155"/><text x="30" y="320" font-size="15" font-weight="bold">raw: meters</text><text x="30" y="338" font-size="9">synthetic-review.raw_energy.meters</text><text x="30" y="360" font-size="12">meter_id [candidate PK]</text><text x="30" y="378" font-size="12">zone</text><rect x="350" y="70" width="290" height="137" rx="8" fill="#fff" stroke="#334155"/><text x="360" y="90" font-size="15" font-weight="bold">bronze: bronze_readings</text><text x="360" y="108" font-size="9">synthetic-review.dma_energy.bronze_readings</text><text x="360" y="130" font-size="12">reading_id [candidate PK]</text><text x="360" y="148" font-size="12">meter_id</text><text x="360" y="166" font-size="12">recorded_on</text><text x="360" y="184" font-size="12">kwh</text><rect x="350" y="300" width="290" height="101" rx="8" fill="#fff" stroke="#334155"/><text x="360" y="320" font-size="15" font-weight="bold">bronze: bronze_meters</text><text x="360" y="338" font-size="9">synthetic-review.dma_energy.bronze_meters</text><text x="360" y="360" font-size="12">meter_id [candidate PK]</text><text x="360" y="378" font-size="12">zone</text><rect x="680" y="70" width="290" height="137" rx="8" fill="#fff" stroke="#334155"/><text x="690" y="90" font-size="15" font-weight="bold">silver: silver_readings</text><text x="690" y="108" font-size="9">synthetic-review.dma_energy.silver_readings</text><text x="690" y="130" font-size="12">reading_id [candidate PK]</text><text x="690" y="148" font-size="12">meter_id</text><text x="690" y="166" font-size="12">recorded_on</text><text x="690" y="184" font-size="12">kwh</text><rect x="680" y="300" width="290" height="101" rx="8" fill="#fff" stroke="#334155"/><text x="690" y="320" font-size="15" font-weight="bold">silver: silver_meters</text><text x="690" y="338" font-size="9">synthetic-review.dma_energy.silver_meters</text><text x="690" y="360" font-size="12">meter_id [candidate PK]</text><text x="690" y="378" font-size="12">zone</text><rect x="1010" y="185" width="290" height="155" rx="8" fill="#fff" stroke="#334155"/><text x="1020" y="205" font-size="15" font-weight="bold">gold: gold_readings</text><text x="1020" y="223" font-size="9">synthetic-review.dma_energy.gold_readings</text><text x="1020" y="245" font-size="12">reading_id [candidate PK]</text><text x="1020" y="263" font-size="12">meter_id</text><text x="1020" y="281" font-size="12">recorded_on</text><text x="1020" y="299" font-size="12">kwh</text><text x="1020" y="317" font-size="12">zone</text><text x="20" y="550" font-size="13">Dashed arrows = transformation lineage; keys are proposed, not enforced native constraints.</text><text x="20" y="576" font-size="13">Meter 1 to readings 0..N; left lookup preserves readings. Duplicate meters and orphans must fail validation.</text><text x="20" y="600" font-size="13">No live warehouse catalogue, tenant access proof, source history, or business acceptance is established.</text></g></svg>